# xmcd
#
# Track frame offsets:
#	150
#	13967
#	29205
#	45068
#	62545
#	74472
#	88596
#	100161
#	113413
#	128730
#	146581
#	175179
#	196472
#	214322
#	237575
#	248751
#	278415
#	299242
#	311312
#
# Disc length: 4439 seconds
#
# Revision: 1
# Processed by: cddbd v1.5.2PL0 Copyright (c) Steve Scherf et al.
# Submitted via: VUPlayer 2.48
#
DISCID=17115513
DTITLE=Various Artisst - Dueling Banjos
DYEAR=2001
DGENRE=Pop
TTITLE0=Lester Flatt and Earl Scruggs - Dueling Banjos
TTITLE1=החברים של קישקשתא - Mr. Kashtan's Store (from 'Neighbours')
TTITLE2=The Colour Field - Thinking of You (singalong version)
TTITLE3=Albert Hammond - It Never Rains in Southern California
TTITLE4=Sutherland Brothers and Quiver - Arms of Mary
TTITLE5=Gary Puckett - This Girl is a Woman Now
TTITLE6=Earl Scruggs - Banjo Man
TTITLE7=Johnny Cash, June Carter - If I Were a Carpenter
TTITLE8=Merle Haggard - Kern River
TTITLE9=Gompie - Living Next Door to Alice (Who the XXX is Alice)
TTITLE10=אייל שכטר - 082
TTITLE11=Desree and Babyface - Fire (instrumental)
TTITLE12=Frankie - One Last Time (instrumental)
TTITLE13=TQ - Westside (instrumental)
TTITLE14=Alan Silvestri - Prince's Day (main title from 'Blown Away')
TTITLE15=Manic Street Preachers - Everything Must Go (Chemical Brother Remix)
TTITLE16=Manic Street Preachers - A Design for Life (instrumental)
TTITLE17=Ray Conniff - The Way We Were
TTITLE18=Martika - Toy Soldiers
EXTD=
EXTT0=
EXTT1=
EXTT2=
EXTT3=
EXTT4=
EXTT5=
EXTT6=
EXTT7=
EXTT8=
EXTT9=
EXTT10=
EXTT11=
EXTT12=
EXTT13=
EXTT14=
EXTT15=
EXTT16=
EXTT17=
EXTT18=
PLAYORDER=
